<mxfile host="Electron" agent="Mozilla/5.0 (Macintosh; Intel Mac OS X 10_15_7) AppleWebKit/537.36 (KHTML, like Gecko) draw.io/28.1.2 Chrome/138.0.7204.243 Electron/37.4.0 Safari/537.36" version="28.1.2">
  <diagram name="Page-1" id="BPAZQSihEwXNPvN9dn13">
    <mxGraphModel dx="898" dy="657" grid="1" gridSize="10" guides="1" tooltips="1" connect="1" arrows="1" fold="1" page="1" pageScale="1" pageWidth="650" pageHeight="450" math="0" shadow="0">
      <root>
        <mxCell id="0" />
        <mxCell id="1" parent="0" />
        <mxCell id="Bj9DGBUfnKGMBLP6oQSB-14" value="server-running Pod" style="rounded=1;whiteSpace=wrap;html=1;fontSize=12;verticalAlign=top;fillColor=#dae8fc;strokeColor=#6c8ebf;" parent="1" vertex="1">
          <mxGeometry x="380" y="250" width="240" height="170" as="geometry" />
        </mxCell>
        <mxCell id="Bj9DGBUfnKGMBLP6oQSB-13" value="server-running Pod" style="rounded=1;whiteSpace=wrap;html=1;fontSize=12;verticalAlign=top;fillColor=#dae8fc;strokeColor=#6c8ebf;" parent="1" vertex="1">
          <mxGeometry x="370" y="240" width="240" height="170" as="geometry" />
        </mxCell>
        <mxCell id="Bj9DGBUfnKGMBLP6oQSB-2" value="server-requesting Pod" style="rounded=1;whiteSpace=wrap;html=1;fontSize=12;verticalAlign=top;fillColor=#dae8fc;strokeColor=#6c8ebf;" parent="1" vertex="1">
          <mxGeometry x="40" y="170" width="140" height="80" as="geometry" />
        </mxCell>
        <mxCell id="Bj9DGBUfnKGMBLP6oQSB-4" value="server-requesting Pod" style="rounded=1;whiteSpace=wrap;html=1;fontSize=12;verticalAlign=top;fillColor=#dae8fc;strokeColor=#6c8ebf;" parent="1" vertex="1">
          <mxGeometry x="50" y="180" width="140" height="80" as="geometry" />
        </mxCell>
        <mxCell id="Bj9DGBUfnKGMBLP6oQSB-5" value="server-requesting Pod" style="rounded=1;whiteSpace=wrap;html=1;fontSize=12;verticalAlign=top;fillColor=#dae8fc;strokeColor=#6c8ebf;" parent="1" vertex="1">
          <mxGeometry x="60" y="190" width="140" height="80" as="geometry" />
        </mxCell>
        <mxCell id="Bj9DGBUfnKGMBLP6oQSB-3" value="requester container" style="rounded=0;whiteSpace=wrap;html=1;fontSize=11;" parent="1" vertex="1">
          <mxGeometry x="75" y="230" width="110" height="20" as="geometry" />
        </mxCell>
        <mxCell id="Bj9DGBUfnKGMBLP6oQSB-6" value="dual-pod controller" style="rounded=1;whiteSpace=wrap;html=1;fontSize=12;verticalAlign=middle;fillColor=#dae8fc;strokeColor=#6c8ebf;" parent="1" vertex="1">
          <mxGeometry x="170" y="360" width="140" height="80" as="geometry" />
        </mxCell>
        <mxCell id="Bj9DGBUfnKGMBLP6oQSB-7" value="&amp;nbsp; &amp;nbsp;server-running Pod" style="rounded=1;whiteSpace=wrap;html=1;fontSize=12;verticalAlign=top;fillColor=#dae8fc;strokeColor=#6c8ebf;align=left;" parent="1" vertex="1">
          <mxGeometry x="360" y="230" width="240" height="170" as="geometry" />
        </mxCell>
        <mxCell id="Bj9DGBUfnKGMBLP6oQSB-8" value="launcher" style="rounded=0;whiteSpace=wrap;html=1;fontSize=11;verticalAlign=top;" parent="1" vertex="1">
          <mxGeometry x="390" y="270" width="180" height="110" as="geometry" />
        </mxCell>
        <mxCell id="Bj9DGBUfnKGMBLP6oQSB-9" value="inference server (sleeping)" style="rounded=0;whiteSpace=wrap;html=1;fontSize=11;" parent="1" vertex="1">
          <mxGeometry x="400" y="300" width="60" height="50" as="geometry" />
        </mxCell>
        <mxCell id="Bj9DGBUfnKGMBLP6oQSB-10" value="inference server (sleeping)" style="rounded=0;whiteSpace=wrap;html=1;fontSize=11;" parent="1" vertex="1">
          <mxGeometry x="410" y="310" width="60" height="50" as="geometry" />
        </mxCell>
        <mxCell id="Bj9DGBUfnKGMBLP6oQSB-11" value="inference server (sleeping)" style="rounded=0;whiteSpace=wrap;html=1;fontSize=11;" parent="1" vertex="1">
          <mxGeometry x="420" y="320" width="60" height="50" as="geometry" />
        </mxCell>
        <mxCell id="Bj9DGBUfnKGMBLP6oQSB-12" value="inference server (running)" style="rounded=0;whiteSpace=wrap;html=1;fontSize=11;" parent="1" vertex="1">
          <mxGeometry x="500" y="310" width="60" height="50" as="geometry" />
        </mxCell>
        <mxCell id="Bj9DGBUfnKGMBLP6oQSB-22" style="edgeStyle=orthogonalEdgeStyle;rounded=0;orthogonalLoop=1;jettySize=auto;html=1;exitX=1;exitY=0.3333333333333333;exitDx=0;exitDy=0;exitPerimeter=0;entryX=0.5;entryY=0;entryDx=0;entryDy=0;curved=1;" parent="1" source="Bj9DGBUfnKGMBLP6oQSB-15" target="Bj9DGBUfnKGMBLP6oQSB-2" edge="1">
          <mxGeometry relative="1" as="geometry" />
        </mxCell>
        <mxCell id="Bj9DGBUfnKGMBLP6oQSB-15" value="Mgmt&lt;div&gt;&lt;div&gt;Clients&lt;/div&gt;&lt;/div&gt;" style="shape=umlActor;verticalLabelPosition=bottom;verticalAlign=top;html=1;outlineConnect=0;" parent="1" vertex="1">
          <mxGeometry x="30" y="10" width="30" height="60" as="geometry" />
        </mxCell>
        <mxCell id="Bj9DGBUfnKGMBLP6oQSB-23" value="CRUD" style="text;html=1;align=center;verticalAlign=middle;whiteSpace=wrap;rounded=0;" parent="1" vertex="1">
          <mxGeometry x="60" y="110" width="60" height="30" as="geometry" />
        </mxCell>
        <mxCell id="Bj9DGBUfnKGMBLP6oQSB-24" style="edgeStyle=orthogonalEdgeStyle;rounded=0;orthogonalLoop=1;jettySize=auto;html=1;exitX=0.25;exitY=0;exitDx=0;exitDy=0;entryX=0.5;entryY=1;entryDx=0;entryDy=0;curved=1;" parent="1" source="Bj9DGBUfnKGMBLP6oQSB-6" target="Bj9DGBUfnKGMBLP6oQSB-5" edge="1">
          <mxGeometry relative="1" as="geometry">
            <mxPoint x="100" y="70" as="sourcePoint" />
            <mxPoint x="150" y="210" as="targetPoint" />
          </mxGeometry>
        </mxCell>
        <mxCell id="Bj9DGBUfnKGMBLP6oQSB-25" value="Watches&lt;div&gt;Sets readiness&lt;/div&gt;&lt;div&gt;Queries GPUs assignment&lt;/div&gt;" style="text;html=1;align=center;verticalAlign=middle;whiteSpace=wrap;rounded=0;" parent="1" vertex="1">
          <mxGeometry x="42.5" y="280" width="95" height="70" as="geometry" />
        </mxCell>
        <mxCell id="Bj9DGBUfnKGMBLP6oQSB-26" style="edgeStyle=orthogonalEdgeStyle;rounded=0;orthogonalLoop=1;jettySize=auto;html=1;exitX=0.75;exitY=0;exitDx=0;exitDy=0;entryX=0;entryY=0.5;entryDx=0;entryDy=0;curved=1;" parent="1" source="Bj9DGBUfnKGMBLP6oQSB-6" target="Bj9DGBUfnKGMBLP6oQSB-7" edge="1">
          <mxGeometry relative="1" as="geometry">
            <mxPoint x="190" y="400" as="sourcePoint" />
            <mxPoint x="150" y="310" as="targetPoint" />
          </mxGeometry>
        </mxCell>
        <mxCell id="Bj9DGBUfnKGMBLP6oQSB-28" value="Manages" style="text;html=1;align=center;verticalAlign=middle;whiteSpace=wrap;rounded=0;" parent="1" vertex="1">
          <mxGeometry x="284" y="322" width="60" height="30" as="geometry" />
        </mxCell>
        <mxCell id="Bj9DGBUfnKGMBLP6oQSB-32" value="Inference&lt;br&gt;&lt;div&gt;&lt;div&gt;Clients&lt;/div&gt;&lt;/div&gt;" style="shape=umlActor;verticalLabelPosition=bottom;verticalAlign=top;html=1;outlineConnect=0;" parent="1" vertex="1">
          <mxGeometry x="390" y="10" width="30" height="60" as="geometry" />
        </mxCell>
        <mxCell id="Bj9DGBUfnKGMBLP6oQSB-34" style="edgeStyle=orthogonalEdgeStyle;rounded=0;orthogonalLoop=1;jettySize=auto;html=1;exitX=1;exitY=0.3333333333333333;exitDx=0;exitDy=0;entryX=0.5;entryY=0;entryDx=0;entryDy=0;curved=1;exitPerimeter=0;" parent="1" source="Bj9DGBUfnKGMBLP6oQSB-32" target="KgqdiZ_tydmitlHOMPH3-6" edge="1">
          <mxGeometry relative="1" as="geometry">
            <mxPoint x="540" y="210" as="sourcePoint" />
            <mxPoint x="830" y="90" as="targetPoint" />
          </mxGeometry>
        </mxCell>
        <mxCell id="Bj9DGBUfnKGMBLP6oQSB-35" value="Inference requests" style="text;html=1;align=center;verticalAlign=middle;whiteSpace=wrap;rounded=0;" parent="1" vertex="1">
          <mxGeometry x="500" y="50" width="60" height="30" as="geometry" />
        </mxCell>
        <mxCell id="KgqdiZ_tydmitlHOMPH3-1" value="Kubernetes&lt;div&gt;Pod scheduler&lt;/div&gt;" style="rounded=1;whiteSpace=wrap;html=1;fontSize=12;verticalAlign=middle;fillColor=#dae8fc;strokeColor=#6c8ebf;" vertex="1" parent="1">
          <mxGeometry x="200" y="70" width="120" height="60" as="geometry" />
        </mxCell>
        <mxCell id="KgqdiZ_tydmitlHOMPH3-2" style="edgeStyle=orthogonalEdgeStyle;rounded=0;orthogonalLoop=1;jettySize=auto;html=1;exitX=0.25;exitY=1;exitDx=0;exitDy=0;entryX=1;entryY=0.5;entryDx=0;entryDy=0;curved=1;startArrow=none;startFill=0;" edge="1" parent="1" source="KgqdiZ_tydmitlHOMPH3-1" target="Bj9DGBUfnKGMBLP6oQSB-5">
          <mxGeometry relative="1" as="geometry">
            <mxPoint x="250" y="335" as="sourcePoint" />
            <mxPoint x="335" y="210" as="targetPoint" />
          </mxGeometry>
        </mxCell>
        <mxCell id="KgqdiZ_tydmitlHOMPH3-3" style="edgeStyle=orthogonalEdgeStyle;rounded=0;orthogonalLoop=1;jettySize=auto;html=1;exitX=0.75;exitY=1;exitDx=0;exitDy=0;entryX=0;entryY=0.25;entryDx=0;entryDy=0;curved=1;startArrow=none;startFill=0;" edge="1" parent="1" source="KgqdiZ_tydmitlHOMPH3-1" target="Bj9DGBUfnKGMBLP6oQSB-7">
          <mxGeometry relative="1" as="geometry">
            <mxPoint x="290" y="160" as="sourcePoint" />
            <mxPoint x="260" y="260" as="targetPoint" />
          </mxGeometry>
        </mxCell>
        <mxCell id="KgqdiZ_tydmitlHOMPH3-4" value="Watches&lt;div&gt;Schedules&lt;/div&gt;" style="text;html=1;align=center;verticalAlign=middle;whiteSpace=wrap;rounded=0;" vertex="1" parent="1">
          <mxGeometry x="231" y="150" width="60" height="30" as="geometry" />
        </mxCell>
        <mxCell id="KgqdiZ_tydmitlHOMPH3-6" value="IGW&lt;div&gt;inference scheduler&lt;/div&gt;" style="rounded=1;whiteSpace=wrap;html=1;fontSize=12;verticalAlign=middle;fillColor=#dae8fc;strokeColor=#6c8ebf;" vertex="1" parent="1">
          <mxGeometry x="450" y="120" width="120" height="60" as="geometry" />
        </mxCell>
        <mxCell id="KgqdiZ_tydmitlHOMPH3-8" style="edgeStyle=orthogonalEdgeStyle;rounded=0;orthogonalLoop=1;jettySize=auto;html=1;exitX=0.5;exitY=1;exitDx=0;exitDy=0;entryX=0.5;entryY=0;entryDx=0;entryDy=0;curved=1;" edge="1" parent="1" source="KgqdiZ_tydmitlHOMPH3-6" target="Bj9DGBUfnKGMBLP6oQSB-12">
          <mxGeometry relative="1" as="geometry">
            <mxPoint x="520" y="200" as="sourcePoint" />
            <mxPoint x="610" y="290" as="targetPoint" />
          </mxGeometry>
        </mxCell>
      </root>
    </mxGraphModel>
  </diagram>
</mxfile>
